<svg width="448" height="376" viewBox="0 0 448 376" fill="none" xmlns="http://www.w3.org/2000/svg">
    <path opacity="0.2" d="M221.566 362.848C117.742 355.037 -6.07237 275.51 0.231213 193.623C6.5348 111.737 126.451 35.5078 230.274 43.3184C334.098 51.1291 393.862 204.161 387.559 286.047C381.255 367.933 325.39 370.658 221.566 362.848Z" fill="#06BFD9"/>
    <path d="M230.275 376C349.971 376 447.003 370.123 447.003 362.874C447.003 355.625 349.971 349.748 230.275 349.748C110.579 349.748 13.5461 355.625 13.5461 362.874C13.5461 370.123 110.579 376 230.275 376Z" fill="#222342"/>
    <path opacity="0.1" d="M230.271 371.342C332.225 371.342 414.876 367.455 414.876 362.662C414.876 357.868 332.225 353.981 230.271 353.981C128.317 353.981 45.6663 357.868 45.6663 362.662C45.6663 367.455 128.317 371.342 230.271 371.342Z" fill="black"/>
    <path d="M393.876 110.935H71.7815V360.755H393.876V110.935Z" fill="#222342"/>
    <path d="M130.025 210.994L104.408 236.008L130.025 261.023L135.788 255.324L116.416 236.167L135.948 216.851L130.025 210.994Z" fill="#28B1C4"/>
    <path d="M335.466 210.994L361.082 236.008L335.466 261.023L329.702 255.324L349.075 236.167L329.542 216.851L335.466 210.994Z" fill="#28B1C4"/>
    <path d="M200.227 251.316H190.112V264.285H179.834V251.316H148.512V243.974L176.653 207.186H187.991L161.481 242.343H180.161V230.842H190.112V242.343H200.227V251.316Z" fill="white"/>
    <path d="M232.586 265.101C228.019 265.101 223.94 263.959 220.351 261.675C216.762 259.337 213.934 255.965 211.868 251.56C209.801 247.101 208.768 241.826 208.768 235.736C208.768 229.645 209.801 224.398 211.868 219.993C213.934 215.534 216.762 212.162 220.351 209.878C223.94 207.54 228.019 206.371 232.586 206.371C237.154 206.371 241.233 207.54 244.822 209.878C248.465 212.162 251.32 215.534 253.387 219.993C255.453 224.398 256.486 229.645 256.486 235.736C256.486 241.826 255.453 247.101 253.387 251.56C251.32 255.965 248.465 259.337 244.822 261.675C241.233 263.959 237.154 265.101 232.586 265.101ZM232.586 255.884C236.665 255.884 239.873 254.198 242.212 250.826C244.604 247.455 245.801 242.425 245.801 235.736C245.801 229.047 244.604 224.017 242.212 220.645C239.873 217.274 236.665 215.588 232.586 215.588C228.562 215.588 225.354 217.274 222.961 220.645C220.623 224.017 219.454 229.047 219.454 235.736C219.454 242.425 220.623 247.455 222.961 250.826C225.354 254.198 228.562 255.884 232.586 255.884Z" fill="white"/>
    <path d="M318.63 251.316H308.516V264.285H298.238V251.316H266.915V243.974L295.057 207.186H306.395L279.885 242.343H298.564V230.842H308.516V242.343H318.63V251.316Z" fill="white"/>
    <g opacity="0.5">
    <path d="M229.609 138.944H150.149C150.022 138.944 149.897 138.92 149.779 138.872C149.662 138.824 149.556 138.754 149.466 138.666C149.376 138.577 149.305 138.472 149.256 138.356C149.208 138.24 149.183 138.116 149.183 137.991C149.183 137.865 149.208 137.741 149.256 137.626C149.305 137.51 149.376 137.405 149.466 137.316C149.556 137.227 149.662 137.157 149.779 137.109C149.897 137.062 150.022 137.037 150.149 137.037H229.609C229.865 137.038 230.11 137.139 230.29 137.317C230.47 137.496 230.572 137.738 230.572 137.991C230.572 138.243 230.47 138.485 230.29 138.664C230.11 138.843 229.865 138.944 229.609 138.944V138.944Z" fill="#F2F2F2"/>
    <path d="M316.601 149.43H191.624C191.368 149.43 191.123 149.33 190.942 149.151C190.761 148.972 190.66 148.729 190.66 148.477C190.66 148.224 190.761 147.981 190.942 147.803C191.123 147.624 191.368 147.523 191.624 147.523H316.601C316.727 147.523 316.853 147.548 316.97 147.596C317.087 147.644 317.193 147.714 317.283 147.803C317.372 147.891 317.443 147.996 317.492 148.112C317.54 148.227 317.565 148.351 317.565 148.477C317.565 148.602 317.54 148.726 317.492 148.841C317.443 148.957 317.372 149.062 317.283 149.151C317.193 149.239 317.087 149.309 316.97 149.357C316.853 149.405 316.727 149.43 316.601 149.43V149.43Z" fill="#F2F2F2"/>
    <path d="M230.002 159.916H150.542C150.286 159.916 150.041 159.816 149.86 159.637C149.679 159.458 149.577 159.216 149.577 158.963C149.577 158.71 149.679 158.468 149.86 158.289C150.041 158.11 150.286 158.01 150.542 158.01H230.002C230.258 158.01 230.503 158.11 230.684 158.289C230.865 158.468 230.967 158.71 230.967 158.963C230.967 159.216 230.865 159.458 230.684 159.637C230.503 159.816 230.258 159.916 230.002 159.916V159.916Z" fill="#F2F2F2"/>
    <path d="M316.601 160.108H237.141C236.885 160.108 236.64 160.007 236.459 159.829C236.278 159.65 236.177 159.407 236.177 159.155C236.177 158.902 236.278 158.659 236.459 158.481C236.64 158.302 236.885 158.201 237.141 158.201H316.601C316.857 158.201 317.102 158.302 317.283 158.481C317.464 158.659 317.566 158.902 317.566 159.155C317.566 159.407 317.464 159.65 317.283 159.829C317.102 160.007 316.857 160.108 316.601 160.108V160.108Z" fill="#F2F2F2"/>
    <path d="M230.198 170.403H150.737C150.482 170.403 150.236 170.302 150.055 170.123C149.875 169.945 149.773 169.702 149.773 169.449C149.773 169.197 149.875 168.954 150.055 168.775C150.236 168.597 150.482 168.496 150.737 168.496H230.198C230.454 168.496 230.699 168.597 230.88 168.775C231.06 168.954 231.162 169.197 231.162 169.449C231.162 169.702 231.06 169.945 230.88 170.123C230.699 170.302 230.454 170.403 230.198 170.403V170.403Z" fill="#F2F2F2"/>
    <path d="M266.454 139.135H243.696C243.44 139.135 243.195 139.034 243.014 138.856C242.834 138.677 242.732 138.434 242.732 138.182C242.732 137.929 242.834 137.686 243.014 137.507C243.195 137.329 243.44 137.228 243.696 137.228H266.454C266.71 137.228 266.955 137.329 267.136 137.507C267.317 137.686 267.419 137.929 267.419 138.182C267.419 138.434 267.317 138.677 267.136 138.856C266.955 139.034 266.71 139.135 266.454 139.135V139.135Z" fill="#F2F2F2"/>
    <path d="M266.454 170.403H243.696C243.44 170.403 243.195 170.302 243.014 170.123C242.834 169.945 242.732 169.702 242.732 169.449C242.732 169.197 242.834 168.954 243.014 168.775C243.195 168.597 243.44 168.496 243.696 168.496H266.454C266.71 168.496 266.955 168.597 267.136 168.775C267.317 168.954 267.419 169.197 267.419 169.449C267.419 169.702 267.317 169.945 267.136 170.123C266.955 170.302 266.71 170.403 266.454 170.403V170.403Z" fill="#F2F2F2"/>
    <path d="M172.722 149.43H149.964C149.708 149.43 149.463 149.33 149.282 149.151C149.101 148.972 149 148.729 149 148.477C149 148.224 149.101 147.981 149.282 147.803C149.463 147.624 149.708 147.523 149.964 147.523H172.722C172.978 147.523 173.223 147.624 173.404 147.803C173.585 147.981 173.687 148.224 173.687 148.477C173.687 148.729 173.585 148.972 173.404 149.151C173.223 149.33 172.978 149.43 172.722 149.43V149.43Z" fill="#F2F2F2"/>
    <path d="M229.714 303.168H150.253C149.998 303.168 149.752 303.068 149.572 302.889C149.391 302.71 149.289 302.467 149.289 302.215C149.289 301.962 149.391 301.719 149.572 301.541C149.752 301.362 149.998 301.261 150.253 301.261H229.714C229.97 301.261 230.215 301.362 230.396 301.541C230.577 301.719 230.678 301.962 230.678 302.215C230.678 302.467 230.577 302.71 230.396 302.889C230.215 303.068 229.97 303.168 229.714 303.168Z" fill="#F2F2F2"/>
    <path d="M229.521 324.839H150.061C149.934 324.839 149.808 324.815 149.691 324.767C149.574 324.719 149.467 324.649 149.377 324.561C149.288 324.472 149.216 324.367 149.168 324.251C149.119 324.135 149.094 324.011 149.094 323.886C149.094 323.76 149.119 323.636 149.168 323.52C149.216 323.405 149.288 323.299 149.377 323.211C149.467 323.122 149.574 323.052 149.691 323.004C149.808 322.957 149.934 322.932 150.061 322.932H229.521C229.648 322.932 229.774 322.957 229.891 323.004C230.008 323.052 230.115 323.122 230.204 323.211C230.294 323.299 230.365 323.405 230.414 323.52C230.462 323.636 230.487 323.76 230.487 323.886C230.487 324.011 230.462 324.135 230.414 324.251C230.365 324.367 230.294 324.472 230.204 324.561C230.115 324.649 230.008 324.719 229.891 324.767C229.774 324.815 229.648 324.839 229.521 324.839V324.839Z" fill="#F2F2F2"/>
    <path d="M263.467 324.839H240.709C240.453 324.839 240.208 324.739 240.027 324.56C239.846 324.381 239.744 324.139 239.744 323.886C239.744 323.633 239.846 323.39 240.027 323.212C240.208 323.033 240.453 322.932 240.709 322.932H263.467C263.723 322.932 263.968 323.033 264.149 323.212C264.33 323.39 264.431 323.633 264.431 323.886C264.431 324.139 264.33 324.381 264.149 324.56C263.968 324.739 263.723 324.839 263.467 324.839V324.839Z" fill="#F2F2F2"/>
    <path d="M316.696 313.654H191.72C191.464 313.654 191.219 313.554 191.038 313.375C190.857 313.196 190.755 312.954 190.755 312.701C190.755 312.448 190.857 312.205 191.038 312.027C191.219 311.848 191.464 311.747 191.72 311.747H316.696C316.952 311.747 317.197 311.848 317.378 312.027C317.559 312.205 317.661 312.448 317.661 312.701C317.661 312.954 317.559 313.196 317.378 313.375C317.197 313.554 316.952 313.654 316.696 313.654V313.654Z" fill="#F2F2F2"/>
    <path d="M172.818 313.654H150.06C149.805 313.654 149.559 313.554 149.378 313.375C149.198 313.196 149.096 312.954 149.096 312.701C149.096 312.448 149.198 312.205 149.378 312.027C149.559 311.848 149.805 311.747 150.06 311.747H172.818C173.074 311.747 173.319 311.848 173.5 312.027C173.681 312.205 173.783 312.448 173.783 312.701C173.783 312.954 173.681 313.196 173.5 313.375C173.319 313.554 173.074 313.654 172.818 313.654V313.654Z" fill="#F2F2F2"/>
    <path d="M316.696 335.516H191.72C191.593 335.516 191.467 335.491 191.35 335.444C191.233 335.396 191.126 335.326 191.037 335.237C190.947 335.148 190.876 335.043 190.827 334.928C190.778 334.812 190.753 334.688 190.753 334.562C190.753 334.437 190.778 334.313 190.827 334.197C190.876 334.081 190.947 333.976 191.037 333.887C191.126 333.799 191.233 333.729 191.35 333.681C191.467 333.633 191.593 333.609 191.72 333.609H316.696C316.952 333.609 317.197 333.709 317.378 333.888C317.559 334.067 317.661 334.309 317.661 334.562C317.661 334.815 317.559 335.058 317.378 335.236C317.197 335.415 316.952 335.516 316.696 335.516V335.516Z" fill="#F2F2F2"/>
    <path d="M172.819 335.516H150.061C149.934 335.516 149.808 335.491 149.691 335.444C149.574 335.396 149.467 335.326 149.377 335.237C149.288 335.148 149.216 335.043 149.168 334.928C149.119 334.812 149.094 334.688 149.094 334.562C149.094 334.437 149.119 334.313 149.168 334.197C149.216 334.081 149.288 333.976 149.377 333.887C149.467 333.799 149.574 333.729 149.691 333.681C149.808 333.633 149.934 333.609 150.061 333.609H172.819C172.945 333.609 173.071 333.633 173.188 333.681C173.306 333.729 173.412 333.799 173.502 333.887C173.592 333.976 173.663 334.081 173.711 334.197C173.76 334.313 173.785 334.437 173.785 334.562C173.785 334.688 173.76 334.812 173.711 334.928C173.663 335.043 173.592 335.148 173.502 335.237C173.412 335.326 173.306 335.396 173.188 335.444C173.071 335.491 172.945 335.516 172.819 335.516Z" fill="#F2F2F2"/>
    </g>
    <path d="M80.7904 121.522C82.9194 121.522 84.6452 119.816 84.6452 117.711C84.6452 115.607 82.9194 113.901 80.7904 113.901C78.6614 113.901 76.9355 115.607 76.9355 117.711C76.9355 119.816 78.6614 121.522 80.7904 121.522Z" fill="#28B1C4"/>
    <path d="M91.0697 121.522C93.1987 121.522 94.9245 119.816 94.9245 117.711C94.9245 115.607 93.1987 113.901 91.0697 113.901C88.9407 113.901 87.2148 115.607 87.2148 117.711C87.2148 119.816 88.9407 121.522 91.0697 121.522Z" fill="#28B1C4"/>
    <path d="M101.349 121.522C103.478 121.522 105.204 119.816 105.204 117.711C105.204 115.607 103.478 113.901 101.349 113.901C99.2205 113.901 97.4946 115.607 97.4946 117.711C97.4946 119.816 99.2205 121.522 101.349 121.522Z" fill="#28B1C4"/>
    <path opacity="0.1" d="M394.32 124.063H72.2253V125.333H394.32V124.063Z" fill="black"/>
    <path d="M237.123 26.6149C237.123 41.314 230.721 41.7707 220.292 41.7707C209.864 41.7707 199.357 41.314 199.357 26.6149C199.357 11.9159 207.811 0 218.24 0C228.669 0 237.123 11.9159 237.123 26.6149Z" fill="#2F2E41"/>
    <path d="M211.22 27.2134C211.22 27.2134 215.672 45.6183 214.053 47.6188C212.434 49.6194 227.814 54.0206 227.814 54.0206L234.289 36.4159L230.647 36.0158C230.647 36.0158 225.385 34.8155 227.004 24.8128C228.623 14.8102 211.22 27.2134 211.22 27.2134Z" fill="#A4664C"/>
    <path d="M218.303 32.4148C225.568 32.4148 231.457 26.593 231.457 19.4114C231.457 12.2297 225.568 6.4079 218.303 6.4079C211.039 6.4079 205.149 12.2297 205.149 19.4114C205.149 26.593 211.039 32.4148 218.303 32.4148Z" fill="#A4664C"/>
    <path d="M205.35 92.6309L196.042 100.633C196.042 100.633 167.71 111.036 174.186 127.04C180.662 143.044 192.804 166.651 192.804 166.651L196.042 174.253H204.136L209.398 171.852L208.184 168.651C208.184 168.651 205.35 164.25 205.35 161.849C205.35 159.449 200.494 131.841 197.256 129.841C197.256 129.841 213.445 114.237 225.182 113.436C236.919 112.636 240.157 109.835 246.633 113.436C253.109 117.037 278.607 123.839 278.607 123.839C278.607 123.839 292.368 148.646 299.248 153.047C306.128 157.448 311.795 172.252 311.795 172.252L323.127 170.252L317.461 158.648C317.461 158.648 311.795 150.246 311.795 146.645C311.795 143.044 293.177 108.235 279.821 102.634C266.465 97.0321 259.991 91.8819 259.991 91.8819L229.384 83.6764L205.35 92.6309Z" fill="#3F3D56"/>
    <path d="M196.043 168.65C196.043 168.65 193.21 166.65 191.186 170.651C189.162 174.652 183.496 183.855 183.496 183.855C183.496 183.855 166.902 196.258 179.449 199.459C179.449 199.459 185.52 199.859 196.043 192.657C206.566 185.455 214.256 181.854 214.66 180.654C215.065 179.453 212.232 165.85 209.399 165.85C206.566 165.85 207.375 172.251 204.137 172.251C201.824 172.306 199.52 172.574 197.257 173.052L196.043 168.65Z" fill="black"/>
    <path d="M326.822 172.519C326.458 171.496 325.892 170.554 325.157 169.749C324.422 168.944 323.532 168.291 322.54 167.828C321.548 167.365 320.473 167.101 319.377 167.051C318.281 167.002 317.186 167.168 316.155 167.54C315.533 167.77 315.112 168.01 315.031 168.25C314.627 169.451 310.964 170.044 310.569 169.347C310.175 168.65 307.341 166.65 309.365 174.252C311.389 181.854 317.46 198.258 320.698 201.059C323.935 203.86 335.268 203.46 336.077 200.659C336.887 197.858 335.673 192.657 334.054 190.656C332.435 188.656 329.602 182.254 329.197 179.853C329.006 178.724 327.92 175.556 326.822 172.519Z" fill="black"/>
    <path d="M254.223 116.04C254.223 116.04 257.408 129.608 263.66 126.42C269.911 123.232 256.805 110.533 256.805 110.533L254.223 116.04Z" fill="#A4664C"/>
    <path d="M219.417 108.438C219.417 108.438 222.602 122.006 228.853 118.818C235.105 115.63 221.999 102.931 221.999 102.931L219.417 108.438Z" fill="#A4664C"/>
    <path d="M250.276 86.2296C245.593 87.654 242.513 87.8101 241.036 89.2424C240.852 89.4166 240.693 89.6144 240.562 89.8306C239.348 91.8311 234.087 92.6313 227.206 91.0309C224.901 90.4329 222.504 90.2593 220.136 90.5188C217.784 90.7549 215.416 91.247 211.017 91.0309C203.339 90.6508 199.668 65.8002 197.928 59.1425C197.835 58.7784 197.746 58.4703 197.661 58.2222C196.042 53.4209 204.541 48.6197 205.755 47.4193C206.97 46.219 210.612 41.4177 213.963 40.9176C217.31 40.4175 222.349 47.4193 222.349 47.4193C222.349 47.4193 230.242 38.0169 229.432 35.6162C228.623 33.2156 237.122 34.816 238.741 34.4159C239.656 34.1878 243.476 35.1761 246.629 36.0803C247.945 36.4561 249.114 37.2197 249.979 38.2691C250.845 39.3186 251.366 40.604 251.474 41.9539C251.526 42.6061 251.583 43.3143 251.64 44.0745C252.643 57.1419 254.295 85.0093 250.276 86.2296Z" fill="#DDDDDD"/>
    <path opacity="0.2" d="M220.135 90.5182C217.783 90.7543 215.416 91.2464 211.016 91.0304C203.339 90.6503 199.668 65.7996 197.927 59.1419C198.219 57.0693 198.47 55.821 198.47 55.821L200.696 58.8218C200.696 58.8218 211.421 76.2264 214.254 81.0277C215.412 82.9882 217.787 86.6892 220.135 90.5182Z" fill="black"/>
    <path d="M200.9 54.2211L197.257 55.8216C197.257 55.8216 192.4 79.828 200.9 91.8311C209.399 103.834 212.637 105.835 214.256 107.835C214.74 108.417 215.365 108.869 216.072 109.148C216.78 109.428 217.547 109.527 218.303 109.436C218.303 109.436 216.684 113.437 219.517 113.437C222.351 113.437 232.874 109.436 230.04 108.236C227.207 107.035 224.374 105.035 225.184 103.034C225.993 101.034 215.875 85.8296 213.042 81.0283C210.209 76.227 200.9 54.2211 200.9 54.2211Z" fill="#DDDDDD"/>
    <path opacity="0.2" d="M250.276 86.2296C245.593 87.654 242.513 87.81 241.036 89.2424C240.663 85.2893 240.679 81.5643 241.371 78.6276C243.859 68.0883 245.736 45.2666 245.621 39.6172C245.607 38.9468 245.752 40.0173 246.431 40.0173V40.4174C249.426 40.4174 250.267 39.3651 251.109 42.2059C251.279 42.7741 251.457 43.3982 251.639 44.0744C252.643 57.1419 254.295 85.0093 250.276 86.2296Z" fill="black"/>
    <path d="M245.015 37.4161H246.255C247.713 37.4155 249.132 37.8818 250.299 38.7452C251.466 39.6087 252.319 40.8227 252.729 42.2054C254.275 47.5988 255.484 53.0813 256.348 58.6218C258.776 73.4257 261.609 110.235 261.204 111.036C260.8 111.836 266.061 115.837 263.633 116.637C261.204 117.437 256.752 119.038 254.729 119.438C252.705 119.838 248.658 115.837 248.658 115.837C248.658 115.837 240.158 90.6303 242.992 78.6271C245.825 66.6239 245.015 37.4161 245.015 37.4161Z" fill="#DDDDDD"/>
    <path d="M229.645 10.1655C229.645 14.1465 224.12 17.3738 217.305 17.3738C210.49 17.3738 204.218 19.5065 204.218 15.5255C204.218 11.5446 210.49 2.95734 217.305 2.95734C224.12 2.95734 229.645 6.18455 229.645 10.1655Z" fill="#2F2E41"/>
    <path d="M199.846 28.793C199.846 28.793 199.27 42.6533 212.979 41.8886C226.688 41.124 212.051 30.8678 212.051 30.8678L199.846 28.793Z" fill="#2F2E41"/>
</svg>
