<svg width="411" height="347" viewBox="0 0 411 347" fill="none" xmlns="http://www.w3.org/2000/svg">
    <path opacity="0.2" d="M203.721 334.595C108.259 327.413 -5.5833 254.291 0.21259 179C6.00848 103.709 116.266 33.619 211.728 40.8006C307.189 47.9822 362.14 188.689 356.344 263.98C350.548 339.271 299.182 341.776 203.721 334.595Z" fill="#06BFD9"/>
    <path d="M211.727 346.688C321.782 346.688 411 341.284 411 334.619C411 327.953 321.782 322.55 211.727 322.55C101.671 322.55 12.4537 327.953 12.4537 334.619C12.4537 341.284 101.671 346.688 211.727 346.688Z" fill="#222342"/>
    <path opacity="0.1" d="M211.727 342.405C305.47 342.405 381.464 338.832 381.464 334.424C381.464 330.016 305.47 326.443 211.727 326.443C117.984 326.443 41.9902 330.016 41.9902 334.424C41.9902 338.832 117.984 342.405 211.727 342.405Z" fill="black"/>
    <path d="M362.484 103.362H66.3309V333.061H362.484V103.362Z" fill="#222342"/>
    <path d="M211.114 134.753H138.054C137.937 134.753 137.822 134.731 137.714 134.687C137.606 134.643 137.508 134.578 137.425 134.497C137.343 134.416 137.277 134.319 137.233 134.212C137.188 134.106 137.165 133.992 137.165 133.876C137.165 133.761 137.188 133.647 137.233 133.541C137.277 133.434 137.343 133.337 137.425 133.256C137.508 133.175 137.606 133.11 137.714 133.066C137.822 133.022 137.937 133 138.054 133H211.114C211.349 133 211.574 133.093 211.74 133.257C211.906 133.422 211.999 133.644 211.999 133.876C211.999 134.109 211.906 134.331 211.74 134.496C211.574 134.66 211.349 134.753 211.114 134.753Z" fill="#F2F2F2"/>
    <path d="M291.091 144.395H176.18C175.945 144.395 175.719 144.302 175.553 144.138C175.387 143.974 175.293 143.751 175.293 143.518C175.293 143.286 175.387 143.063 175.553 142.898C175.719 142.734 175.945 142.642 176.18 142.642H291.091C291.207 142.642 291.323 142.664 291.43 142.708C291.538 142.752 291.636 142.817 291.718 142.898C291.8 142.98 291.865 143.076 291.91 143.183C291.955 143.289 291.978 143.403 291.978 143.518C291.978 143.633 291.955 143.747 291.91 143.854C291.865 143.96 291.8 144.057 291.718 144.138C291.636 144.219 291.538 144.284 291.43 144.328C291.323 144.372 291.207 144.395 291.091 144.395Z" fill="#F2F2F2"/>
    <path d="M211.469 154.037H138.408C138.173 154.037 137.948 153.944 137.781 153.78C137.615 153.615 137.522 153.393 137.522 153.16C137.522 152.928 137.615 152.705 137.781 152.54C137.948 152.376 138.173 152.284 138.408 152.284H211.469C211.704 152.284 211.93 152.376 212.096 152.54C212.262 152.705 212.356 152.928 212.356 153.16C212.356 153.393 212.262 153.615 212.096 153.78C211.93 153.944 211.704 154.037 211.469 154.037Z" fill="#F2F2F2"/>
    <path d="M291.091 154.212H218.03C217.795 154.212 217.569 154.12 217.403 153.955C217.237 153.791 217.143 153.568 217.143 153.335C217.143 153.103 217.237 152.88 217.403 152.716C217.569 152.551 217.795 152.459 218.03 152.459H291.091C291.326 152.459 291.551 152.551 291.718 152.716C291.884 152.88 291.977 153.103 291.977 153.335C291.977 153.568 291.884 153.791 291.718 153.955C291.551 154.12 291.326 154.212 291.091 154.212Z" fill="#F2F2F2"/>
    <path d="M211.646 163.678H138.586C138.35 163.678 138.125 163.586 137.959 163.422C137.792 163.257 137.699 163.034 137.699 162.802C137.699 162.569 137.792 162.346 137.959 162.182C138.125 162.018 138.35 161.925 138.586 161.925H211.646C211.881 161.925 212.107 162.018 212.273 162.182C212.44 162.346 212.533 162.569 212.533 162.802C212.533 163.034 212.44 163.257 212.273 163.422C212.107 163.586 211.881 163.678 211.646 163.678Z" fill="#F2F2F2"/>
    <path d="M211.824 173.32H138.763C138.528 173.32 138.302 173.228 138.136 173.063C137.97 172.899 137.876 172.676 137.876 172.444C137.876 172.211 137.97 171.988 138.136 171.824C138.302 171.659 138.528 171.567 138.763 171.567H211.824C212.059 171.567 212.284 171.659 212.451 171.824C212.617 171.988 212.71 172.211 212.71 172.444C212.71 172.676 212.617 172.899 212.451 173.063C212.284 173.228 212.059 173.32 211.824 173.32Z" fill="#F2F2F2"/>
    <path d="M244.985 134.928H224.059C223.824 134.928 223.599 134.836 223.433 134.672C223.266 134.507 223.173 134.284 223.173 134.052C223.173 133.819 223.266 133.596 223.433 133.432C223.599 133.268 223.824 133.175 224.059 133.175H244.985C245.22 133.175 245.445 133.268 245.612 133.432C245.778 133.596 245.871 133.819 245.871 134.052C245.871 134.284 245.778 134.507 245.612 134.672C245.445 134.836 245.22 134.928 244.985 134.928Z" fill="#F2F2F2"/>
    <path d="M244.985 163.678H224.059C223.824 163.678 223.599 163.586 223.433 163.422C223.266 163.257 223.173 163.034 223.173 162.802C223.173 162.569 223.266 162.346 223.433 162.182C223.599 162.018 223.824 161.925 224.059 161.925H244.985C245.22 161.925 245.445 162.018 245.612 162.182C245.778 162.346 245.871 162.569 245.871 162.802C245.871 163.034 245.778 163.257 245.612 163.422C245.445 163.586 245.22 163.678 244.985 163.678Z" fill="#F2F2F2"/>
    <path d="M244.985 173.145H224.059C223.943 173.145 223.827 173.123 223.72 173.079C223.612 173.035 223.514 172.97 223.431 172.889C223.349 172.807 223.283 172.711 223.239 172.604C223.194 172.498 223.171 172.384 223.171 172.268C223.171 172.153 223.194 172.039 223.239 171.933C223.283 171.826 223.349 171.729 223.431 171.648C223.514 171.567 223.612 171.502 223.72 171.458C223.827 171.414 223.943 171.392 224.059 171.392H244.985C245.101 171.392 245.217 171.414 245.324 171.458C245.432 171.502 245.53 171.567 245.613 171.648C245.695 171.729 245.761 171.826 245.805 171.933C245.85 172.039 245.873 172.153 245.873 172.268C245.873 172.384 245.85 172.498 245.805 172.604C245.761 172.711 245.695 172.807 245.613 172.889C245.53 172.97 245.432 173.035 245.324 173.079C245.217 173.123 245.101 173.145 244.985 173.145Z" fill="#F2F2F2"/>
    <path d="M280.096 173.145H259.171C258.936 173.144 258.711 173.052 258.545 172.888C258.38 172.723 258.286 172.501 258.286 172.268C258.286 172.036 258.38 171.814 258.545 171.649C258.711 171.485 258.936 171.392 259.171 171.392H280.096C280.213 171.392 280.328 171.414 280.436 171.458C280.544 171.502 280.642 171.567 280.724 171.648C280.807 171.729 280.872 171.826 280.917 171.933C280.962 172.039 280.985 172.153 280.985 172.268C280.985 172.384 280.962 172.498 280.917 172.604C280.872 172.711 280.807 172.807 280.724 172.889C280.642 172.97 280.544 173.035 280.436 173.079C280.328 173.123 280.213 173.145 280.096 173.145Z" fill="#F2F2F2"/>
    <path d="M158.801 144.395H137.876C137.641 144.395 137.416 144.302 137.249 144.138C137.083 143.974 136.99 143.751 136.99 143.518C136.99 143.286 137.083 143.063 137.249 142.898C137.416 142.734 137.641 142.642 137.876 142.642H158.801C159.037 142.642 159.262 142.734 159.428 142.898C159.595 143.063 159.688 143.286 159.688 143.518C159.688 143.751 159.595 143.974 159.428 144.138C159.262 144.302 159.037 144.395 158.801 144.395Z" fill="#F2F2F2"/>
    <path d="M211.203 276.75H138.142C137.907 276.75 137.682 276.658 137.515 276.494C137.349 276.329 137.256 276.106 137.256 275.874C137.256 275.641 137.349 275.418 137.515 275.254C137.682 275.09 137.907 274.997 138.142 274.997H211.203C211.438 274.997 211.664 275.09 211.83 275.254C211.996 275.418 212.09 275.641 212.09 275.874C212.09 276.106 211.996 276.329 211.83 276.494C211.664 276.658 211.438 276.75 211.203 276.75Z" fill="#F2F2F2"/>
    <path d="M210.848 296.034H137.788C137.552 296.034 137.327 295.942 137.161 295.777C136.994 295.613 136.901 295.39 136.901 295.157C136.901 294.925 136.994 294.702 137.161 294.538C137.327 294.373 137.552 294.281 137.788 294.281H210.848C211.083 294.281 211.309 294.373 211.475 294.538C211.642 294.702 211.735 294.925 211.735 295.157C211.735 295.39 211.642 295.613 211.475 295.777C211.309 295.942 211.083 296.034 210.848 296.034Z" fill="#F2F2F2"/>
    <path d="M211.026 305.676H137.965C137.848 305.676 137.733 305.654 137.625 305.61C137.517 305.566 137.419 305.501 137.337 305.42C137.254 305.338 137.189 305.242 137.144 305.135C137.099 305.029 137.076 304.915 137.076 304.799C137.076 304.684 137.099 304.57 137.144 304.463C137.189 304.357 137.254 304.26 137.337 304.179C137.419 304.097 137.517 304.033 137.625 303.989C137.733 303.945 137.848 303.922 137.965 303.923H211.026C211.142 303.922 211.258 303.945 211.366 303.989C211.473 304.033 211.571 304.097 211.654 304.179C211.736 304.26 211.802 304.357 211.846 304.463C211.891 304.57 211.914 304.684 211.914 304.799C211.914 304.915 211.891 305.029 211.846 305.135C211.802 305.242 211.736 305.338 211.654 305.42C211.571 305.501 211.473 305.566 211.366 305.61C211.258 305.654 211.142 305.676 211.026 305.676Z" fill="#F2F2F2"/>
    <path d="M242.236 296.209H221.311C221.076 296.209 220.85 296.117 220.684 295.953C220.518 295.788 220.424 295.565 220.424 295.333C220.424 295.1 220.518 294.877 220.684 294.713C220.85 294.549 221.076 294.456 221.311 294.456H242.236C242.471 294.456 242.697 294.549 242.863 294.713C243.029 294.877 243.123 295.1 243.123 295.333C243.123 295.565 243.029 295.788 242.863 295.953C242.697 296.117 242.471 296.209 242.236 296.209Z" fill="#F2F2F2"/>
    <path d="M242.236 305.676H221.311C221.076 305.676 220.85 305.583 220.684 305.419C220.518 305.255 220.424 305.032 220.424 304.799C220.424 304.567 220.518 304.344 220.684 304.179C220.85 304.015 221.076 303.923 221.311 303.923H242.236C242.471 303.923 242.697 304.015 242.863 304.179C243.029 304.344 243.123 304.567 243.123 304.799C243.123 305.032 243.029 305.255 242.863 305.419C242.697 305.583 242.471 305.676 242.236 305.676Z" fill="#F2F2F2"/>
    <path d="M277.348 296.209H256.423C256.187 296.209 255.962 296.117 255.796 295.953C255.629 295.788 255.536 295.565 255.536 295.333C255.536 295.1 255.629 294.877 255.796 294.713C255.962 294.549 256.187 294.456 256.423 294.456H277.348C277.583 294.456 277.808 294.549 277.975 294.713C278.141 294.877 278.234 295.1 278.234 295.333C278.234 295.565 278.141 295.788 277.975 295.953C277.808 296.117 277.583 296.209 277.348 296.209Z" fill="#F2F2F2"/>
    <path d="M291.179 286.392H176.269C176.033 286.392 175.808 286.3 175.642 286.135C175.475 285.971 175.382 285.748 175.382 285.516C175.382 285.283 175.475 285.06 175.642 284.896C175.808 284.731 176.033 284.639 176.269 284.639H291.179C291.415 284.639 291.64 284.731 291.806 284.896C291.973 285.06 292.066 285.283 292.066 285.516C292.066 285.748 291.973 285.971 291.806 286.135C291.64 286.3 291.415 286.392 291.179 286.392Z" fill="#F2F2F2"/>
    <path d="M158.89 286.392H137.965C137.73 286.392 137.504 286.3 137.338 286.135C137.172 285.971 137.078 285.748 137.078 285.516C137.078 285.283 137.172 285.06 137.338 284.896C137.504 284.731 137.73 284.639 137.965 284.639H158.89C159.125 284.639 159.351 284.731 159.517 284.896C159.683 285.06 159.777 285.283 159.777 285.516C159.777 285.748 159.683 285.971 159.517 286.135C159.351 286.3 159.125 286.392 158.89 286.392Z" fill="#F2F2F2"/>
    <path d="M291.179 315.493H176.269C176.152 315.493 176.036 315.471 175.929 315.427C175.821 315.383 175.723 315.318 175.64 315.237C175.558 315.155 175.492 315.059 175.448 314.952C175.403 314.846 175.38 314.732 175.38 314.616C175.38 314.501 175.403 314.387 175.448 314.281C175.492 314.174 175.558 314.077 175.64 313.996C175.723 313.915 175.821 313.85 175.929 313.806C176.036 313.762 176.152 313.74 176.269 313.74H291.179C291.415 313.74 291.64 313.832 291.806 313.997C291.973 314.161 292.066 314.384 292.066 314.616C292.066 314.849 291.973 315.072 291.806 315.236C291.64 315.401 291.415 315.493 291.179 315.493Z" fill="#F2F2F2"/>
    <path d="M158.89 315.493H137.965C137.848 315.493 137.733 315.471 137.625 315.427C137.517 315.383 137.419 315.318 137.337 315.237C137.254 315.155 137.189 315.059 137.144 314.952C137.099 314.846 137.076 314.732 137.076 314.616C137.076 314.501 137.099 314.387 137.144 314.281C137.189 314.174 137.254 314.077 137.337 313.996C137.419 313.915 137.517 313.85 137.625 313.806C137.733 313.762 137.848 313.74 137.965 313.74H158.89C159.007 313.74 159.122 313.762 159.23 313.806C159.338 313.85 159.436 313.915 159.518 313.996C159.601 314.077 159.666 314.174 159.711 314.281C159.756 314.387 159.779 314.501 159.779 314.616C159.779 314.732 159.756 314.846 159.711 314.952C159.666 315.059 159.601 315.155 159.518 315.237C159.436 315.318 159.338 315.383 159.23 315.427C159.122 315.471 159.007 315.493 158.89 315.493Z" fill="#F2F2F2"/>
    <path d="M193.558 196.461L165.185 224.159L193.558 251.857L199.942 245.546L178.485 224.334L200.12 202.947L193.558 196.461Z" fill="#28B1C4"/>
    <path d="M235.409 196.461L263.782 224.159L235.409 251.857L229.025 245.546L250.482 224.334L228.848 202.947L235.409 196.461Z" fill="#28B1C4"/>
    <path d="M74.2835 112.706C76.241 112.706 77.8279 111.137 77.8279 109.202C77.8279 107.267 76.241 105.698 74.2835 105.698C72.326 105.698 70.7391 107.267 70.7391 109.202C70.7391 111.137 72.326 112.706 74.2835 112.706Z" fill="#28B1C4"/>
    <path d="M83.7352 112.706C85.6927 112.706 87.2795 111.137 87.2795 109.202C87.2795 107.267 85.6927 105.698 83.7352 105.698C81.7777 105.698 80.1908 107.267 80.1908 109.202C80.1908 111.137 81.7777 112.706 83.7352 112.706Z" fill="#28B1C4"/>
    <path d="M93.1869 112.706C95.1444 112.706 96.7313 111.137 96.7313 109.202C96.7313 107.267 95.1444 105.698 93.1869 105.698C91.2294 105.698 89.6425 107.267 89.6425 109.202C89.6425 111.137 91.2294 112.706 93.1869 112.706Z" fill="#28B1C4"/>
    <path opacity="0.1" d="M362.56 115.042H66.4071V116.21H362.56V115.042Z" fill="black"/>
    <path d="M218.024 25.4425C218.024 38.9577 212.138 39.3776 202.549 39.3776C192.96 39.3776 183.299 38.9577 183.299 25.4425C183.299 11.9274 191.073 0.971161 200.662 0.971161C210.251 0.971161 218.024 11.9274 218.024 25.4425Z" fill="#2F2E41"/>
    <path d="M194.207 25.9931C194.207 25.9931 198.301 42.9156 196.812 44.755C195.324 46.5944 209.465 50.6411 209.465 50.6411L215.419 34.4544L212.07 34.0865C212.07 34.0865 207.232 32.9829 208.721 23.7858C210.209 14.5888 194.207 25.9931 194.207 25.9931Z" fill="#A4664C"/>
    <path d="M200.72 30.7755C207.399 30.7755 212.814 25.4226 212.814 18.8194C212.814 12.2162 207.399 6.86325 200.72 6.86325C194.04 6.86325 188.625 12.2162 188.625 18.8194C188.625 25.4226 194.04 30.7755 200.72 30.7755Z" fill="#A4664C"/>
    <path d="M188.811 86.1417L180.252 93.4993C180.252 93.4993 154.203 103.064 160.157 117.78C166.111 132.495 177.275 154.2 177.275 154.2L180.252 161.19H187.695L192.533 158.982L191.416 156.039C191.416 156.039 188.811 151.993 188.811 149.785C188.811 147.578 184.346 122.194 181.369 120.355C181.369 120.355 196.254 106.007 207.046 105.272C217.838 104.536 220.815 101.961 226.769 105.272C232.723 108.582 256.168 114.836 256.168 114.836C256.168 114.836 268.82 137.645 275.147 141.692C281.473 145.739 286.683 159.35 286.683 159.35L297.102 157.511L291.893 146.842C291.893 146.842 286.683 139.117 286.683 135.806C286.683 132.495 269.565 100.489 257.284 95.3387C245.004 90.1884 239.051 85.453 239.051 85.453L210.91 77.9084L188.811 86.1417Z" fill="#3F3D56"/>
    <path d="M180.252 156.039C180.252 156.039 177.647 154.2 175.787 157.879C173.926 161.557 168.716 170.019 168.716 170.019C168.716 170.019 153.459 181.423 164.995 184.366C164.995 184.366 170.577 184.734 180.252 178.112C189.928 171.49 196.998 168.179 197.371 167.076C197.743 165.972 195.138 153.464 192.533 153.464C189.928 153.464 190.672 159.35 187.695 159.35C185.568 159.401 183.45 159.647 181.369 160.086L180.252 156.039Z" fill="black"/>
    <path d="M300.501 159.596C300.166 158.655 299.645 157.79 298.969 157.049C298.294 156.309 297.476 155.709 296.564 155.283C295.651 154.857 294.663 154.614 293.655 154.569C292.647 154.523 291.64 154.676 290.693 155.018C290.121 155.23 289.734 155.451 289.66 155.671C289.287 156.775 285.92 157.32 285.557 156.68C285.194 156.039 282.589 154.2 284.45 161.19C286.31 168.179 291.892 183.262 294.869 185.838C297.847 188.413 308.266 188.045 309.011 185.47C309.755 182.895 308.638 178.112 307.15 176.273C305.661 174.433 303.056 168.547 302.684 166.34C302.509 165.301 301.51 162.389 300.501 159.596Z" fill="black"/>
    <path d="M233.75 107.665C233.75 107.665 236.678 120.141 242.426 117.21C248.174 114.278 236.123 102.602 236.123 102.602L233.75 107.665Z" fill="#A4664C"/>
    <path d="M201.746 100.675C201.746 100.675 204.674 113.151 210.422 110.22C216.17 107.288 204.12 95.6123 204.12 95.6123L201.746 100.675Z" fill="#A4664C"/>
    <path d="M230.118 80.2556C225.813 81.5653 222.981 81.7087 221.622 83.0257C221.453 83.1859 221.307 83.3677 221.187 83.5665C220.071 85.4059 215.233 86.1417 208.907 84.6702C206.787 84.1203 204.583 83.9607 202.405 84.1993C200.243 84.4163 198.066 84.8688 194.021 84.6702C186.962 84.3207 183.587 61.4716 181.987 55.35C181.901 55.0152 181.819 54.732 181.741 54.5039C180.252 50.0893 188.067 45.6747 189.184 44.5711C190.3 43.4674 193.649 39.0529 196.73 38.593C199.808 38.1332 204.441 44.5711 204.441 44.5711C204.441 44.5711 211.698 35.9259 210.953 33.7186C210.209 31.5113 218.024 32.9828 219.512 32.6149C220.353 32.4052 223.866 33.3139 226.765 34.1453C227.975 34.4909 229.05 35.1929 229.846 36.1578C230.642 37.1227 231.121 38.3046 231.22 39.5458C231.268 40.1455 231.32 40.7966 231.372 41.4956C232.295 53.5106 233.814 79.1336 230.118 80.2556Z" fill="#DDDDDD"/>
    <path opacity="0.2" d="M202.406 84.1993C200.243 84.4163 198.066 84.8688 194.021 84.6702C186.962 84.3207 183.587 61.4716 181.986 55.35C182.254 53.4444 182.485 52.2966 182.485 52.2966L184.532 55.0557C184.532 55.0557 194.393 71.0586 196.998 75.4732C198.063 77.2757 200.247 80.6787 202.406 84.1993Z" fill="black"/>
    <path d="M184.718 50.8251L181.369 52.2966C181.369 52.2966 176.903 74.3695 184.718 85.4059C192.533 96.4424 195.51 98.2818 196.998 100.121C197.443 100.656 198.018 101.071 198.668 101.328C199.319 101.586 200.024 101.677 200.72 101.593C200.72 101.593 199.231 105.272 201.836 105.272C204.441 105.272 214.117 101.593 211.512 100.489C208.907 99.3854 206.302 97.546 207.046 95.7066C207.79 93.8672 198.487 79.8877 195.882 75.4731C193.277 71.0586 184.718 50.8251 184.718 50.8251Z" fill="#DDDDDD"/>
    <path opacity="0.2" d="M230.118 80.2556C225.813 81.5653 222.981 81.7087 221.622 83.0257C221.28 79.3911 221.295 75.9661 221.931 73.2659C224.219 63.5754 225.945 42.5917 225.839 37.3974C225.826 36.781 225.959 37.7653 226.583 37.7653V38.1332C229.337 38.1332 230.111 37.1656 230.885 39.7776C231.041 40.3 231.205 40.8739 231.372 41.4956C232.295 53.5106 233.814 79.1336 230.118 80.2556Z" fill="black"/>
    <path d="M225.281 35.3741H226.421C227.761 35.3735 229.066 35.8022 230.139 36.5961C231.212 37.39 231.996 38.5063 232.373 39.7776C233.795 44.7366 234.906 49.7776 235.7 54.8718C237.933 68.4834 240.538 102.328 240.166 103.064C239.794 103.8 244.631 107.479 242.399 108.215C240.166 108.95 236.072 110.422 234.212 110.79C232.351 111.158 228.63 107.479 228.63 107.479C228.63 107.479 220.815 84.3023 223.42 73.2658C226.025 62.2294 225.281 35.3741 225.281 35.3741Z" fill="#DDDDDD"/>
    <path d="M211.148 10.3179C211.148 13.9782 206.068 16.9455 199.802 16.9455C193.536 16.9455 187.769 18.9065 187.769 15.2462C187.769 11.5858 193.536 3.69022 199.802 3.69022C206.068 3.69022 211.148 6.65751 211.148 10.3179Z" fill="#2F2E41"/>
    <path d="M183.751 27.4449C183.751 27.4449 183.22 40.1889 195.825 39.4858C208.43 38.7827 194.972 29.3526 194.972 29.3526L183.751 27.4449Z" fill="#2F2E41"/>
</svg>
