<svg width="54" height="54" viewBox="0 0 54 54" fill="none" xmlns="http://www.w3.org/2000/svg">
    <circle cx="27" cy="27" r="25.1823" fill="#222342" stroke="#28B1C4" stroke-width="2.36453"/>
    <circle cx="27" cy="27" r="25.1823" fill="white" stroke="#222342" stroke-width="2.36453"/>
    <path d="M14.021 17.996L4.41873 27.3445L14.021 36.693L16.1814 34.563L8.91984 27.4036L16.2414 20.1852L14.021 17.996Z" fill="#28B1C3"/>
    <path d="M39.9791 17.996L49.5813 27.3445L39.9791 36.693L37.8186 34.563L45.0803 27.4036L37.7586 20.1852L39.9791 17.996Z" fill="#28B1C3"/>
    <path d="M18.7383 36.6946V17.9675H20.8191L27.4256 28.2674H26.3852L32.9917 17.9675H35.0725V36.6946H32.5756V22.051L33.1218 22.2071L27.8938 30.2441H25.9171L20.6891 22.2071L21.2353 22.051V36.6946H18.7383Z" fill="black"/>
</svg>
